# xmcd CD database file
#
# Track frame offsets:
#	150
#	43667
#	93483
#	146723
#
# Disc length: 2479 seconds
#
# Revision: 0
# Processed by: cddbd v1.5.1PL0 Copyright (c) Steve Scherf et al.
# Submitted via: CDex 1.51
#
DISCID=3309ad04
DTITLE=John Abercrombie Organ Trio - Jazzfestival Viersen, 2004/09/09
DYEAR=2004
DGENRE=Jazz
TTITLE0=Class Trip
TTITLE1=Bo-diddy
TTITLE2=Lullaby Of The Leaves
TTITLE3=Moon And Sand
EXTD=YEAR: 2004
EXTT0=
EXTT1=
EXTT2=
EXTT3=
PLAYORDER=
